<?xml version="1.0" encoding="utf-8"?>
<!-- Generator: $$$/GeneralStr/196=Adobe Illustrator 27.6.0, SVG Export Plug-In . SVG Version: 6.00 Build 0)  -->
<svg version="1.1" id="圖層_1" xmlns="http://www.w3.org/2000/svg" xmlns:xlink="http://www.w3.org/1999/xlink" x="0px" y="0px"
	 viewBox="0 0 563.3 174.8" style="enable-background:new 0 0 563.3 174.8;" xml:space="preserve">
<style type="text/css">
	.st0{fill:#FEF7E6;}
	.st1{enable-background:new    ;}
</style>
<g>
	<path class="st0" d="M100.2,81.4C100.3,81.4,100.3,81.4,100.2,81.4L100.2,81.4c0.1-1,0.2-1.8,0.2-2.6c0.2-2.9,0.2-6.2,0-9.1
		c-0.2-3.4-0.6-6.6-1.8-9.8c0-0.1,0-0.1,0.1-0.2c3-1.1,6-1.5,9-1c1.8,0.3,3.2,0.7,4.4,1.2c3.6,1.6,4.7,4.5,5.8,8
		c0.3,1,0.6,2,0.9,3.1c0.8,3.4,1.5,6.9,2,10.4c0,0.1,0.1,0.2,0.1,0.2c0.2,0.1,0.3,0,0.4-0.2c0.6-3.8,1.2-7.6,2.1-11.4
		c0.1-0.7,0.4-1.4,0.6-2c0-0.1,0.1-0.1,0.2-0.1c0.3,0,0.5,0.1,0.7,0.2c0.9,0.6,1.8,1.2,2.6,1.8c6.2,4.9,18.3,17.6,13.2,26.5
		c-1.2,2.1-4.1,2.4-6.2,2.3c-2.7,0-5.1-0.1-7-0.4c-1.4-0.2-2.7-0.1-4.1-0.3c-0.4-0.1-0.9,0-1.3,0c-2.1-0.2-4.3-0.1-6.4-0.4
		c-0.5-0.1-0.9,0-1.3,0c-2.6-0.2-5.2-0.2-7.8-0.4c-0.7-0.1-1.5,0-2.1,0c-9.2-0.3-17.8-0.1-26.7,0.7c-0.3,0-0.7-0.1-1.1,0.1
		c-0.2,0.1-0.3,0.1-0.4,0.1c-1.2,0.1-2.6,0.4-3.8,0.3c-0.3,0-0.5,0.1-0.8,0.2c-3.8,0.3-7.5,0.8-11.3,1.2c-2.2,0.2-4.5,0.3-5.7-1.9
		c-2.8-4.9-2.8-11.1,0-16c2.1-3.8,9.1-12.2,14.3-9.4c4.5,2.4,8.6,6.3,12.4,9.9c0.2,0.1,0.3,0.2,0.3,0.2c0.2-0.1,0.2-0.2,0.1-0.4
		c-2.7-4.3-5.2-8.7-7.5-13.1c-0.7-1.4-1.1-2.1,0.6-3.1c3.2-1.8,6.7-3.1,10.3-3.7c1.6-0.3,2.7-0.4,3.2-0.4c2.2,0.2,3.6,2.2,4.6,3.8
		c2.9,4.8,5.3,10.7,7,15.9C100.1,81.2,100,81.3,100.2,81.4z"/>
	<g>
		<path class="st0" d="M96.5,147.5c-16.9,0-32.8-6.6-44.8-18.5c-12-12-18.5-27.9-18.5-44.8s6.6-32.8,18.5-44.8s27.9-18.5,44.8-18.5
			s32.8,6.6,44.8,18.5c12,12,18.5,27.9,18.5,44.8s-6.6,32.8-18.5,44.8C129.3,140.9,113.4,147.5,96.5,147.5z M96.5,25.9
			C80.9,25.9,66.3,32,55.3,43S38.2,68.6,38.2,84.2s6.1,30.2,17.1,41.2s25.6,17.1,41.2,17.1s30.2-6.1,41.2-17.1s17.1-25.6,17.1-41.2
			S148.7,54,137.7,43S112,25.9,96.5,25.9z"/>
	</g>
	<g>
		<path class="st0" d="M96.5,139.7c-14.8,0-28.8-5.8-39.3-16.3C46.7,113,40.9,99,40.9,84.2s5.8-28.8,16.3-39.3s24.4-16.3,39.3-16.3
			s28.8,5.8,39.3,16.3C146.2,55.4,152,69.4,152,84.2s-5.8,28.8-16.3,39.3C125.3,134,111.3,139.7,96.5,139.7z M96.5,30.8
			c-29.5,0-53.4,24-53.4,53.4s24,53.4,53.4,53.4s53.4-24,53.4-53.4S125.9,30.8,96.5,30.8z"/>
	</g>
	<path class="st0" d="M65.3,103.4L65.3,103.4l-0.2,0.1c0,0.3-0.1,0,0,0.3c0-0.2-0.1,0-0.2-0.2h-0.3l-0.1,0.1l-0.1-0.2l-0.2,0.3v-0.3
		l-0.2,0.1v0.2c0-0.2-0.1-0.1-0.1,0.2v-0.2l-0.2,0.1c0,0.2-0.1,0-0.1,0.2l0.1-0.1c0,0.2-0.3,0.2-0.3,0.2c-0.2,0.2-0.5,0.6-0.7,0.8
		l-0.1-0.2v0.2v0.2l-0.3,0.3c0.1,0.3-0.1,0.1,0,0.3l-0.1,0.1L62,106v0.2c0,0.6-0.1,0.8-0.1,1.4c0,0.1-0.1,0-0.1,0.2l0.1-0.1
		c0.1,0.6,0.2,1,0.2,1.6c0.2,0.2,0.4,0.5,0.5,0.9l0.2,0.1l0.3,0.4l0.3,0.4l-0.1-0.2l0.2,0.3l0.2,0.3v-0.2l0.1,0.3v-0.2
		c0.1,0.2,0.1,0.4,0.1,0.8L64,112v0.2V112v-0.1v0.2l0.1-0.1l0.1-0.1v-0.5l0.3,0.1l0.1,0.2l0.1,0.3h0.1h-0.1l-0.1-0.3v-0.3l0.1,0.4
		H65v0.3l0.1-0.2v0.3h0.3c0-0.2-0.2,0.1-0.2-0.2l0.3-0.1l-0.1-0.1c0-0.1,0.1-0.3,0.1-0.1v-0.3c0.1,0,0.1,0.2,0.1-0.1
		c0.1,0.2,0.2,0,0.3,0.1l0.1-0.2l0.1-0.1l0.1,0.1V111c0,0.1,0.1,0.2,0.1-0.1l0.1,0.3h0.1V111l0.2-0.4h-0.1v-0.2l0.1-0.1l0.2-0.2v0.2
		c0.1,0.2,0.1-0.2,0.1,0l0.2,0.1c0.1-0.2,0.2,0,0.2-0.3v0.3l0.1-0.2l0.1,0.4c0.1,0.1,0-0.5,0.1-0.3v-0.4v0.2l-0.1-0.5
		c0.1-0.1,0.1,0.3,0.1,0.1l0.1,0.2c0,0.1,0.1,0,0.1,0.2l0.1-0.2l0.1,0.3l0.2-0.1l0.1-0.2c0-0.2-0.1-0.3-0.1-0.5
		c0,0.2-0.1,0.1-0.1-0.1l0.1,0.1l0.1-0.1v-0.2v0.2v-0.2c0.2,0,0.1,0.3,0.3,0.2l-0.1-0.3l0.3,0.2L69,109v-0.2v0.1l0.1-0.1l0.1,0.2
		l0.2-0.3l0.1,0.2l-0.1,0.1c-0.1,0.3,0.2,0.2,0.1-0.2l0.3-0.1l0.1,0.2l0.1-0.1c0-0.2,0,0-0.1,0l-0.1-0.2l0.3-0.1l0.2,0.2v-0.2
		c0.3-0.1,0.6-0.4,0.8-0.2v-0.2c0.7-0.2,1.1-0.5,1.9-0.6c0.2,0.1,0.4-0.1,0.6,0l0.3-0.1l0.3-0.1h0.2l0.1-0.1c0.3,0,0.9,0,1.3,0
		c0.6,0.1,1.4-0.2,2.1-0.3l0.2-0.2c0.3-0.1,0.6-0.2,0.9-0.2l0.1-0.1h0.3c0.4,0.1,0.6,0,1,0.1c0.2-0.1,0.4,0,0.5-0.1
		c0.3,0.1,0.8-0.1,1.1,0.1h0.3l0.1,0.1c0.3-0.1,0.4,0.1,0.7,0h0.4c0.4-0.2,1.2-0.1,1.7-0.2c0.2,0,0.3,0,0.5,0l0.2,0.1h0.3
		c0.2,0.1,0.5,0,0.7,0c0.9,0.2,1.7,0.1,2.8,0.1c0.7-0.4,1.7-0.2,2.4-0.1l0.1-0.1h0.3l0.1,0.2l0.4-0.1c1.2,0.1,2.6-0.1,3.7-0.2
		c0.2-0.1,0.6,0,0.8-0.2l0.2,0.2c0.2,0,0.5,0,0.6-0.2c0.6-0.1,1,0,1.5,0l0.2,0.2l0.3-0.1l0.3,0.2l0.3-0.1c0.4,0.2,0.7,0.1,1.2,0
		c0.2,0.2,0.6,0.1,0.8,0c0.8,0.2,1.3,0.1,2.1,0.2l0.2,0.2l0.4-0.1c0.2,0.1,0.5,0.1,0.7,0.1l0.1,0.1h0.3c0.3-0.2,0.8,0,1.2,0l0.3,0.2
		h0.3h0.3h0.3c0.4,0.1,0.9-0.1,1.3,0.1h0.3c0.4,0.3,0.9,0.2,1.4,0.1l0.2,0.1c0.4-0.2,0.9-0.2,1.3-0.2l0.2,0.1c0.7-0.1,1.5,0,2.2,0
		h0.3l0.2,0.2c1-0.2,2-0.1,2.9-0.2l0.2,0.2l0.3-0.2h0.2c0.4,0,1.1,0,1.5-0.1l0.2,0.2l0.1-0.1h0.2V107c0.7-0.3,1.7-0.2,2.3-0.3h0.1
		c0.3-0.1,0.6,0,0.9,0l0.2-0.1c0.3,0,0.7,0.1,1,0.1s0.5,0,0.8,0c0.4,0,0.8,0.1,1.3,0.1c1.2,0,2.6,0.2,3.8,0.2c0.6,0,0.9,0,1.4,0
		l0.1-0.1h0.3c0.4,0.1,1.1-0.1,1.5,0.1l0.2-0.1h0.1c0.2,0,0.4,0,0.5-0.1c0.6-0.1,1,0,1.4-0.3h0.3l0.4-0.3h-0.1
		c0-0.3,0.2-0.2,0.2-0.4c0-0.2-0.1,0-0.1,0v-0.2l-0.2,0.2v-0.2l-0.3,0.2H138l0.1-0.4l-0.2,0.2l-0.1,0.2c-0.4,0.1-0.5,0.2-0.9,0.3
		c-0.3,0-0.5,0-0.6,0c-0.2-0.1-0.3,0-0.5-0.2l-0.2,0.1l-0.2-0.2c-0.6,0-1.3,0-1.9,0c0,0.2,0.1,0,0.1,0.2h0.4c0,0.3-0.2,0-0.3,0.1
		l-0.3-0.1h-0.3c-0.6-0.1-1.2,0.1-1.6-0.2c-0.5,0-0.8,0-1.2,0l0.1,0.1l-0.3-0.1l-0.2,0.1c-0.1-0.1-0.3,0.1-0.4-0.1l-0.1,0.1
		c-0.2-0.1-0.4,0-0.6-0.1l-0.2,0.1l-0.1-0.2v0.2l-0.4-0.1l-0.3-0.1c0,0,0,0.2-0.1,0l-0.1,0.1l-0.4-0.1c-0.2,0.1-0.3-0.1-0.5,0
		c-0.1-0.1-0.1,0.1-0.2-0.1l-0.1,0.1l-0.1-0.2v0.2h-0.2l-0.1-0.2v0.2c-0.2-0.1-0.3,0.1-0.4-0.1l-0.6,0.2c-0.2-0.1-0.3,0.1-0.5,0
		c-0.4,0-0.8,0-1.2,0.1c-0.3,0-0.8,0.1-1.1,0.1c-0.2,0.1-0.5,0-0.9,0.1c-0.3,0-0.7,0.1-0.9,0c-0.2,0-0.4,0.1-0.7,0.1
		c-0.2,0-0.4,0-0.7,0h-0.2c-0.2,0-0.4,0.1-0.6,0.1v-0.1l-0.3,0.1h-0.4l-0.2-0.1l0.5-0.1c0.4,0,0.8-0.1,1.2,0l0.2-0.1h0.2l0.1-0.1
		l0.1,0.2h0.2c0.3-0.1,0.5-0.1,0.8-0.3c-0.2,0-0.4-0.1-0.6,0.1l0.1-0.1l-0.1,0.1c-0.1-0.3-0.3,0.1-0.4-0.1l-0.1,0.1l-0.4-0.1
		l-0.3,0.1l-0.1-0.1l-0.2,0.1c-0.2,0-0.4,0-0.6,0s-0.3,0.1-0.6,0.1c-0.5,0-1,0-1.7,0l-0.1-0.1c-0.4,0.1-0.6-0.1-0.8,0.1l-0.3-0.1
		L114,106h-0.2c-0.1,0-0.1-0.2-0.1,0.1l-0.1-0.1c-0.3,0-0.5-0.1-0.8-0.1l-0.2-0.1c-0.3,0-0.5,0-0.8,0c-0.6-0.1-1.1,0.3-1.7,0
		c-0.4,0-0.6,0-1-0.1l-0.1,0.1l-0.1-0.1c-0.2,0-0.4-0.1-0.5-0.1c-0.2,0-0.3,0.1-0.5,0l-0.1,0.1c-0.4-0.2-0.9-0.1-1.3-0.2
		c-0.4,0.1-0.8-0.1-1.1-0.2c-0.5,0-0.7,0.1-1.1-0.1l0.1-0.1l0.1,0.1c0.2-0.1,0.4,0.1,0.5-0.1h0.2l0.1-0.1l0.2,0.1h0.2h0.1h0.3
		l0.1-0.1l0.1,0.1l0.1-0.1h0.2l0.1,0.2c0.9,0.2,1.9,0.3,2.8,0.2l0.1,0.1c0.2,0,0.5-0.1,0.7-0.1l-0.2-0.1l-0.2-0.1
		c-0.4,0.1-1.1,0-1.4,0c0-0.2,0.1,0,0.2-0.1c0.4-0.1,0.9,0,1.2-0.1l0.3,0.1l0.1-0.1h0.3c0.2,0.1,0.4,0.1,0.6,0.2
		c-0.3,0.1-0.6,0.1-0.9,0.2c0.1,0.3,0.4,0,0.6,0.1l0.2-0.1v0.2c0.9,0.2,2-0.1,3,0.1l0.4-0.1v0.2l0.1-0.2h0.2l0.1,0.2v-0.2l0.1,0.2
		l0.1-0.2c0.8,0,0.9,0,1.6-0.1l0.4,0.1h0.3l0.2-0.1v-0.2l0.1,0.2l0.1-0.1c0.5,0,1.1,0.1,1.7-0.1v0.2c0.3,0,0.6,0,0.8,0l0.1-0.2h0.2
		c0.5-0.1,0.7,0,1.1-0.1l0.2,0.1l0.1-0.2v0.2l0.3-0.1l-0.1,0.1c0.1,0.2,0.1-0.1,0.1-0.1v0.2c0.2-0.1,0.5,0.1,0.5-0.2v0.2v-0.2
		c0.2-0.1,0.6-0.1,0.9-0.1v0.3c0.4-0.1,0.8-0.1,1.2,0v-0.2h0.3H125l-0.1-0.2l-0.1,0.2v-0.1l-0.1,0.1v-0.3h0.4l-0.3-0.2
		c-0.7-0.1-1.3,0-1.9-0.2c0-0.2,0.1-0.1,0.2-0.1h0.2c0.3,0,0.5,0,0.7,0.1v-0.2l0.1-0.1l0.4,0.2c0.2,0,0.4,0.1,0.5,0.1
		c0-0.2,0.1,0,0.1-0.3c0.6,0.1,1.3,0.1,1.8,0.1l0.1-0.1c0.2,0,0.7,0.1,1.1,0h0.1h0.5l0.3-0.1v0.2c0.3-0.1,0.5,0,0.9,0.1h0.3h0.1
		c0.2,0,0.3,0,0.5,0h0.1h0.1h-0.1h-0.3c-0.3-0.1-0.5-0.1-0.7-0.1l0.1-0.1l-0.3-0.1c0,0.3,0.1,0,0.1,0.1c-0.1,0.2-0.2-0.1-0.2-0.2
		l-0.1,0.1c-0.1,0-0.3-0.2-0.3,0H129h-0.3c-0.3-0.1-0.7,0-1,0c-0.2-0.1-0.4,0-0.6-0.1h-0.5l-0.1-0.1h-0.2l-0.2,0.1l-0.1-0.1h-0.3
		v-0.2l0.1-0.1h0.6l0.2,0.2v-0.2l0.3,0.2h0.4l0.2-0.2c0.2,0.1,0.3,0,0.6,0l0.2,0.1c0.3-0.1,0.7-0.1,0.9,0.1c0.3-0.2,0.5,0,0.7-0.1
		l0.1,0.1c0.1-0.2,0.2,0,0.2-0.2v0.2h0.1l0.2-0.2l0.1,0.1h0.4l0.1-0.1c0.3,0.2,0.6,0.1,1,0.2l-0.4,0.2l0.4,0.1l0.1,0.1
		c0.3,0,0.6,0,0.8-0.2h0.3c0.1-0.1,0.1,0.1,0.1-0.2l-0.1,0.2c-0.1-0.4,0.1-0.2,0.2-0.3c0,0.2,0,0-0.1,0.1l0.1,0.1l-0.1,0.1
		c1,0,1.5,0.2,2.5,0c-0.2-0.1-0.4-0.1-0.6,0l-0.1-0.2v0.2l-0.2-0.1l-0.1,0.1l-0.1-0.1l-0.1,0.1h-0.2l-0.1,0.1h-0.2v-0.2l-0.1,0.1
		l-0.1-0.1c-0.1-0.2-0.1,0.3-0.1,0v0.1h-0.4c0-0.1,0.1-0.1,0.1-0.3c0.2,0.1,0.6-0.1,0.8,0.1h0.2l0.2-0.1c0.3,0,0.8,0.1,1.2-0.1
		l0.1,0.1l0.1-0.2c0.1,0.1,0.2-0.2,0.2,0l0.1-0.1h0.1l0.4-0.3l-0.4,0.1c-0.3,0-0.5,0-0.7,0s-0.4,0.1-0.6,0c0-0.2,0.2-0.1,0.2-0.1
		l0.1-0.1h0.2l-0.1-0.2l0.3-0.2h-0.1c-0.1-0.1-0.2-0.1-0.4-0.1l-0.1-0.2h-0.1l-0.2,0.2l0.1-0.1l0.1,0.4H135l-0.1-0.2l0.1-0.1v0.2
		l0.2-0.1c0.1-0.2-0.1,0.1-0.1-0.2h-0.4v-0.2l-0.7,0.1c0.1,0.2,0.2-0.1,0.2,0.2l0.1-0.2v0.1c0.1,0.2,0.2,0,0.2,0.2
		c-0.3,0.2-0.5-0.2-0.9-0.1l-0.4-0.3c-0.2,0.1-0.4,0.1-0.7,0l0.2-0.1l0.1-0.1l0.1-0.1h-0.1h-0.3c-0.2,0-0.4,0.1-0.5,0v0.2l-0.3,0.1
		c-0.8,0-1.5-0.1-2.3,0.1c0-0.3,0.1-0.2,0.2-0.2h0.3c0.2,0,0.5,0,0.7,0l0.2-0.1h0.4c0-0.2-0.2-0.1-0.3-0.1h-0.3h-0.1l-0.2,0.1
		l0.1-0.1l-0.1,0.1h-0.4h-0.2c-0.1-0.1-0.4,0-0.7,0s-0.8,0-1.1,0.1v-0.2c-0.2-0.1-0.5-0.1-0.5,0.2V102l-0.2,0.1V102h-0.3l-0.2,0.2
		l0.1-0.1c-0.2,0-0.5-0.1-0.7-0.1h-0.5l-0.1-0.1l-0.3,0.1c-0.3,0-0.6-0.1-0.8-0.1v-0.2h-0.2c0,0.1,0.2,0,0.2,0.2
		c-0.3,0-0.9-0.1-1.3,0c0,0.2-0.1-0.1-0.1,0.2l-0.1-0.2c-0.1,0.1-0.3,0.1-0.5,0.1h-0.3l-0.1,0.1h-0.2l-0.3-0.1l-0.4,0.1h-0.2v0.1
		l-0.1-0.1l-0.2,0.1c-0.3,0-0.7-0.1-1.2,0l-0.3,0.1c-0.3,0-0.6,0-1,0.1l-0.2-0.2c-0.1,0.1-0.3,0.1-0.5,0.1c-0.2,0.1-0.5,0.1-0.7,0.1
		l-0.1-0.1c0,0-0.1,0.2-0.1,0l-0.2,0.2l-0.2-0.2v0.1l-0.1-0.2c-0.8,0.1-1.8,0-2.7,0.2l-0.2-0.1c-0.4,0-0.4,0-0.8,0
		c-0.3-0.2-0.9,0-1.3-0.1c-0.3,0.1-0.5,0-0.9,0.1c0-0.3,0.1-0.1,0.2-0.2c0.4,0.1,0.9,0.1,1.4-0.1c0.2,0.1,0.4,0,0.6,0
		c0.1,0.1,0.3,0.1,0.6,0.1c-0.1-0.2-0.2-0.1-0.3-0.1l-0.2-0.2c-0.5,0.1-1.2,0.1-1.8,0h-0.4c-0.3,0.2-0.7,0-1,0.2l-0.1,0.1h0.1h0.2
		c0.2,0,0.3,0,0.4,0.1h0.2c0,0.3-0.1,0.1-0.2,0.1h-0.1c-0.2,0-0.4,0-0.7,0l-0.1,0.2h-0.4l-0.1-0.2v0.2h-0.3h-0.2h0.1l0.2,0.1
		c0.2-0.1,0.4,0.1,0.6,0c0,0.3-0.2,0-0.4,0.1l-0.1-0.1h-0.5v0.2l0.1,0.3l-0.3-0.2c-0.6,0-1.1-0.3-1.6-0.1c-0.2-0.1-0.4,0-0.6-0.1
		c-0.2,0-0.3,0.1-0.6,0.1c-0.2-0.1-0.4-0.2-0.7-0.1l-0.1-0.1h-0.3c-0.1-0.1-0.4,0-0.4-0.2l0.3-0.2c0.2,0,0.5-0.1,0.8,0l-0.1-0.2
		c0-0.2,0.2,0.1,0.2-0.1c-0.8,0-1.3-0.2-2-0.2v-0.2l-0.1,0.2c-0.1-0.2-0.3,0.1-0.4-0.2l-0.1,0.2h-0.1l-0.2-0.2l0.1,0.1v-0.3l0.1,0.1
		c0.3-0.2,0.6,0.1,0.9-0.1h0.2l0.2,0.1l0.2-0.1c0.4,0.1,1.1-0.2,1.6,0c0-0.2-0.2,0-0.3-0.1c0-0.1,0.1-0.3,0.1-0.1
		c0.1-0.2-0.2-0.2-0.3-0.1l-0.6-0.1c0-0.2,0.1-0.2,0.1-0.1h0.2c0.3-0.1,0.5,0.1,0.9,0h0.2v0.2v-0.2h0.2c0,0.2,0.1-0.1,0.1,0.1
		l0.2-0.1h0.2l0.3,0.1h0.5h0.5v0.2v-0.2l0.1,0.2l0.1-0.2v0.2l0.1-0.1l0.1-0.1c0-0.2-0.3-0.1-0.4-0.1h-0.4c-0.2,0-0.2,0-0.4,0
		l-0.6-0.1h-0.3h-0.1c-0.4,0.1-0.7,0-0.9,0.1l-0.3-0.1c0.5-0.1,1,0,1.5,0h0.3c0.1,0,0.4,0,0.6,0c0.1-0.1,0.3,0.1,0.3-0.1
		c-0.2,0-0.5,0-0.6-0.1c-1,0-1.3,0.1-2.1-0.1c-0.4,0.2-0.9,0-1.2,0c-0.9,0.1-1.9,0.3-2.6,0.3v0.2h-0.1l-0.3-0.1
		c0-0.3,0.2,0.1,0.1-0.3l-0.1,0.1h-0.2c-0.3,0.1-0.6,0-0.8,0c-0.6-0.2-1.2,0.1-1.8,0c0-0.3,0.2,0,0.2-0.2l0.4-0.1l-0.1-0.1h-0.2
		l-0.2-0.2H97c-0.3,0.1-0.8,0.2-1.2,0.2c-0.5,0.1-1,0.1-1.5,0.2c-0.3,0.1-0.6,0.3-0.9,0.3s-0.6,0-0.8,0.1c-0.4,0-0.5,0.2-0.8-0.1
		c-1.1,0-2.1-0.1-3.1-0.2c-0.3,0.1-0.6,0-1,0l-0.2-0.1c-0.3,0-0.5,0-0.8-0.1c-0.6,0.1-1.3,0.1-2,0.1c-0.7,0.2-1.4,0.1-2.2,0.2
		c-0.5-0.3-1.2-0.1-1.7-0.2c-0.9-0.1-2.2,0-3,0c-0.9,0.2-2,0.1-2.9,0.5l-0.2-0.1c-1.3,0.2-2.3-0.1-3.6,0.2c-0.3-0.1-0.4,0.1-0.8,0
		l-0.1,0.1c-1,0.1-1.9,0.6-2.9,0.8c-0.2,0.1-0.5,0.1-0.6,0.2c-0.3,0-0.4,0.1-0.6,0l-0.3,0.1l-0.5,0.3v-0.2v0.2l-0.1-0.1l-0.1,0.2
		l-0.2,0.1h-0.2c-0.2,0.3-0.7,0.2-1,0.3l-0.2-0.4L65.3,103.4z M105.1,101.6l-0.3,0.1c0-0.3,0.2,0,0.2-0.2h0.3
		C105.4,101.8,105.2,101.6,105.1,101.6z M95.3,101.7h-0.6c0.2,0,0.6-0.2,0.9-0.1L95.3,101.7z M94.6,101.7L94.6,101.7l-0.3,0.1
		L94.6,101.7z M93.6,101.8H94h0.2l-0.2,0.1c-0.3,0-0.4,0.2-0.6,0L93.6,101.8z M102.9,101.5c0-0.3,0.2,0.1,0.2-0.1
		c0.1,0.3,0.2-0.1,0.3,0.2l-0.4,0.1c-0.3-0.2-0.6,0.1-0.9-0.2h0.4l0.1-0.1h0.1v-0.1C102.7,101.5,102.8,101.2,102.9,101.5z
		 M104.5,101.6h-0.3C104.2,101.2,104.5,101.7,104.5,101.6L104.5,101.6z M102.3,101.8l0.2,0.2c0.1,0,0.3-0.1,0.3,0.2h-0.4l-0.1,0.1
		l-0.1-0.1c-0.4,0-0.7,0-1-0.1h-0.5l-0.3-0.1C100.9,101.8,101.8,102,102.3,101.8z M94.9,102.8l-0.2-0.1l-0.1,0.1H94.9l-0.2-0.4
		l0.1,0.1L94.9,102.8L94.9,102.8L94.9,102.8L94.9,102.8z M94.1,102.4l0.1,0.5l-0.2-0.2v-0.2h-0.2C93.8,102.3,93.9,102.5,94.1,102.4z
		 M93.4,102.5l-0.3,0.1l-0.2-0.2C93.1,102.5,93.3,102.3,93.4,102.5z M103.1,102.1L103.1,102.1l-0.2-0.1L103.1,102.1z M94.6,102.7
		L94.6,102.7l-0.2,0.2l-0.1-0.2h-0.1v0.2v-0.2C94.3,102.4,94.4,102.8,94.6,102.7z M93.7,102.8l-0.2-0.2h0.4
		C94,102.8,93.7,102.6,93.7,102.8z M93.1,102.7L93.1,102.7L93.1,102.7h0.3v0.1l-0.1,0.1l-0.4-0.1L93.1,102.7z M90.4,103.1
		L90.4,103.1c-0.1,0-0.4,0.2-0.4,0C90.1,103,90.2,103,90.4,103.1z M91,103.2l-0.4-0.1C90.8,103.1,90.9,103,91,103.2z M91.5,103.2
		L91.5,103.2c-0.2-0.1-0.4,0.1-0.4-0.1C91.2,103.1,91.3,103,91.5,103.2z M92.1,103.1l0.2,0.1l-0.4,0.1c0-0.2-0.3,0.1-0.3-0.2
		C91.9,103.1,91.9,103.2,92.1,103.1z M85.7,104l-0.3,0.1l-0.2-0.2C85.5,103.9,85.6,103.8,85.7,104z M84.9,104.1h-0.2
		c0-0.2-0.1,0-0.1,0l-0.1-0.2h0.2L84.9,104.1h0.2H84.9L84.9,104.1z M83.9,104l0.2,0.1c-0.1,0.1-0.3-0.2-0.3,0.1l-0.2-0.2H83.9z
		 M73,104.7l-0.2,0.1c-0.1-0.1-0.3,0.1-0.3-0.1C72.7,104.7,72.8,104.5,73,104.7z M87.5,103.9L87.5,103.9c-0.2,0.1-0.2,0.2-0.4,0.1
		h-0.2C87.1,103.9,87.3,103.8,87.5,103.9z M86.9,104h-0.3H86.9z M86.6,104h-0.3C86.2,103.8,86.6,103.8,86.6,104z M92.4,103.6
		c0.1,0,0.3,0,0.5,0c0.4,0,0.8-0.1,1.2,0h0.2l0.2-0.1l0.2,0.1l0.1-0.1l0.1,0.1l-0.1,0.1l-0.2,0.1h-0.3l-0.5,0.1l-0.2-0.2l-0.3,0.1
		c-0.2,0-0.3-0.1-0.5-0.1L92.4,103.6l-0.3,0.1l-0.3-0.1C92,103.7,92.2,103.6,92.4,103.6z M88.5,103.8l0.2,0.1h-0.4
		C88.3,103.7,88.4,103.8,88.5,103.8z M90,104.1c0.1,0,0.3-0.1,0.3,0.1L90,104.1L90,104.1z M89,104.3h-0.4c0-0.2,0.2-0.1,0.2-0.2
		l0.1,0.1l0.2-0.1C89.1,104.3,89,104.2,89,104.3z M98.5,103.8c0.1,0,0.2-0.1,0.2,0.1h-0.5c-0.1-0.1-0.3,0-0.2-0.2l0.1-0.1l0.2,0.1
		l0.3-0.1L98.5,103.8z M104.5,103.4l0.3-0.1v-0.1C104.8,103.6,104.6,103.6,104.5,103.4z M99.7,103.7l0.2-0.1c0,0.3,0.2,0,0.2,0
		l0.1,0.1h0.3c0,0.3-0.2,0-0.3,0.2c-0.2-0.1-0.5,0-0.7,0l0.1-0.3C99.5,103.9,99.8,103.5,99.7,103.7z M98.9,103.7
		c0.1,0.1,0.2-0.1,0.4,0.1c-0.2,0.1-0.3,0-0.4,0.1V103.7C98.9,103.9,99,103.5,98.9,103.7L98.9,103.7z M90.9,104.1L90.9,104.1
		l0.3,0.2h-0.3c0-0.2-0.3,0.1-0.3-0.2l0.2-0.1C90.8,104.4,90.9,104.2,90.9,104.1z M92.1,104.3L92.1,104.3L92.1,104.3l-0.3,0.1v-0.2
		l0.1-0.1L92.1,104.3z M110.6,103.2l0.3,0.1C110.8,103.2,110.6,103.4,110.6,103.2L110.6,103.2z M93.9,104.1L93.9,104.1h0.2l0.1,0.2
		v-0.2h0.2v0.2H94c-0.1-0.1-0.3,0.1-0.4-0.1L93.9,104.1z M94.3,104.1l0.2,0.2h0.4c0.2,0,0.4-0.2,0.5,0c-0.3,0.1-0.5,0-0.7,0.2
		l-0.1-0.2l-0.3,0.1V104.1z M101.2,103.7h0.4C101.4,103.7,101.2,104,101.2,103.7z M104.2,103.7c0.1-0.2,0.3,0,0.5,0s0.3,0,0.5,0.1
		c0.4-0.1,0.9,0,1.4,0l0.2,0.1c0.2,0,0.3,0,0.5,0h0.3l0.3,0.1c-0.6,0.2-1.1-0.2-1.8-0.1c-0.2-0.1-0.6,0-0.8-0.1l-0.2,0.1
		c-0.2-0.1-0.2-0.1-0.4-0.1L104.2,103.7H104H104.2z M124.3,103.4c-0.3,0.1-0.9,0-1.2,0.1c-0.5-0.1-1,0-1.5,0l-0.4,0.1
		c-0.5,0-1.1,0-1.7,0l-0.2,0.1l-0.1-0.1h-0.3c-0.1-0.1-0.2,0.1-0.2-0.1c0-0.1,0.1,0.1,0.1-0.1c0,0.2,0.1,0,0.2,0l0.1-0.1
		c0.2-0.1,0.5,0,0.6-0.1h-0.5c-0.3,0-0.5,0-1,0l-0.3,0.1c0.1,0.2,0.2-0.1,0.2,0.2c-0.2,0.2-0.5-0.2-0.6,0.1v-0.1h-0.3l-0.1,0.1
		c-0.3,0-0.7-0.1-1.1,0c-0.3-0.2-0.7,0.1-1,0c-0.2,0.2-0.6,0-0.9,0.1l-0.2-0.1h-0.1l-0.4-0.1l-0.1-0.2l0.2-0.1l-0.2-0.1
		c0.2-0.1,0.4,0,0.6,0c0.3-0.3,0.8,0,1-0.1c0,0.3,0.2,0.1,0.2,0.3l-0.2,0.2l0.2,0.1c0.1-0.2,0.3-0.1,0.4-0.1c0.2,0,0.4-0.1,0.6-0.1
		h0.3l-0.2-0.2c0.3-0.1,0.4,0,0.7,0l0.1-0.2l0.1-0.1c0.4,0.1,0.8-0.1,1.1,0.2c0.4,0,0.7-0.1,1.1-0.1c0.4-0.4,0.8,0,1.4-0.3l0.5,0.1
		l-0.1,0.2l-0.1,0.1l-0.1,0.1c0.3,0,0.4-0.1,0.7,0l0.6-0.1c0-0.1-0.2,0-0.2-0.2h0.2c0.4-0.1,0.8-0.1,1.1-0.3
		c0.1,0.2,0.2,0.1,0.3,0.2c0.7-0.1,1.3-0.2,2.1-0.1c0,0.3-0.2,0.2-0.3,0.2l-0.3,0.1l0.3,0.1l0.2-0.2c0.2,0.1,0.3,0.1,0.5,0
		c0.2,0.1,0.4,0,0.7,0.1h0.5c0.4-0.1,0.6,0,0.9,0l0.1,0.1c0.2,0,0.4,0,0.6,0h0.3l0.2-0.1l0.1,0.1l0.1-0.1l0.1,0.1l0.1-0.1
		c0-0.1-0.1,0-0.1-0.2h0.5c0.1,0.2-0.1,0-0.1,0.2l0.2,0.1c-0.2,0-0.2-0.1-0.4,0c0.1,0.3-0.1,0.2-0.1,0.3c0.2,0.1,0.4-0.1,0.6,0.1
		c-0.1,0,0,0.3-0.2,0.2c-0.1-0.2,0.1,0,0-0.2l-0.2,0.1l-0.1,0.1h-0.4v-0.1l-0.3,0.1l-0.2-0.1c-0.1-0.1-0.2,0.2-0.2,0
		c-0.1-0.3,0.3-0.1,0.3-0.2h0.3l0.3-0.1h-0.5l-0.1-0.1c-0.7,0-1.4,0-2.2,0c-0.3,0.1-0.6-0.1-0.8,0.1c0.4,0,1,0.1,1.5,0.1
		c0.1,0,0.3-0.2,0.3,0h-0.2l-0.2,0.2c-0.3,0-0.3-0.1-0.6,0l-0.1-0.1c-0.2,0.1-0.5-0.1-0.8,0.1l0.2,0.2L126,104
		c-0.2,0.1-0.2,0-0.4,0.1v0.2l-0.1-0.2h-0.1v0.1v-0.1h-0.3c-0.1-0.3,0.2-0.1,0.2-0.2c-0.3,0-0.3-0.1-0.6,0c-0.2-0.1-0.3-0.1-0.6-0.1
		l-0.1-0.1h-0.3h-0.2l-0.1-0.1l0.3-0.1l-0.1-0.2l0.3,0.2l0.2-0.2L124.3,103.4C124.2,103.1,124.2,103.5,124.3,103.4L124.3,103.4
		L124.3,103.4h0.2h0.1v0.1l0.1-0.1l0.4-0.1C125,103.4,124.7,103.5,124.3,103.4l0.1-0.2L124.3,103.4z M112.4,103.5l-0.5,0.1l-0.5-0.1
		C111.7,103.5,112.2,103.3,112.4,103.5z M111,103.9l-0.4-0.2h-0.2c-0.1,0-0.2,0.1-0.2-0.1C110.4,103.7,110.9,103.4,111,103.9z
		 M112,103.9c0,0.3-0.3,0.2-0.4,0.2h-0.5c-0.2,0-0.3,0-0.4,0h-0.2l-0.2-0.1C110.7,103.9,111.3,104,112,103.9z M109.1,104.1l0.2,0.2
		h-0.2c0-0.2-0.2,0.1-0.2-0.2H109.1z M104.4,104.4L104.4,104.4L104.4,104.4l0.2,0.1v0.1l-0.1,0.1h-0.2l-0.1-0.2L104.4,104.4z
		 M94.7,105.1l-0.2,0.1l-0.3,0.1h-0.3l-0.1-0.1c-0.1,0-0.3,0.1-0.3-0.1C93.8,105,94.3,105.1,94.7,105.1z M114,104L114,104
		c1.3,0,2.7-0.1,3.9-0.2h0.3c0.1,0,0.2-0.1,0.2,0.1c-0.5,0-1.1,0.1-1.5,0.1s-1.1,0.1-1.7,0.1C114.9,104,114.4,104.1,114,104
		l-0.2,0.1l-0.1-0.1H114z M110.8,104.4l0.2,0.1l0.1-0.1h0.3h0.4l0.2,0.1c-0.3,0.1-0.8,0-1.1,0.2L110.8,104.4l-0.7,0.2
		c-0.3-0.1-0.6,0-0.9-0.1c-0.2,0-0.5,0-0.6-0.1C109.4,104.2,110.2,104.7,110.8,104.4z M123.6,103.8l-0.1,0.2l-0.3-0.1v0.2
		c0-0.2,0,0-0.1-0.1c0,0.1-0.3,0.2-0.3,0h0.1l0.1-0.2H123.6v-0.2V103.8z M135.8,103.2l0.2,0.1L135.8,103.2l-0.1-0.2L135.8,103.2z
		 M132.4,103.9c-0.2,0.1-0.5,0-0.7,0.1l-0.5-0.1c0.4,0,0.9,0,1.2-0.2V103.9z M132.4,103.6H132l-0.1-0.2c0.2-0.1,0.2,0,0.4,0
		L132.4,103.6L132.4,103.6z M120.8,104.2L120.8,104.2c-0.2,0-0.3,0.1-0.3-0.1h0.5L120.8,104.2z M104.6,105L104.6,105h0.3
		c0.1,0,0.2-0.1,0.2,0.1l-0.4,0.1c-0.1,0-0.4,0.1-0.4-0.1L104.6,105z M131.3,103.6c0,0.2-0.2,0.1-0.3,0.1h-0.1l-0.1-0.1h-0.2H131.3z
		 M134.6,103.4h0.2c-0.3,0-0.3,0-0.5,0.1C134.3,103.3,134.5,103.4,134.6,103.4z M131.7,103.7h-0.2c-0.1,0-0.2,0.1-0.2-0.1
		c0.1,0,0.4,0.1,0.6,0C132,103.8,131.7,103.5,131.7,103.7z M106,105.1h0.3c0,0,0.1-0.1,0.2,0.1c-0.2-0.1-0.5,0-0.8,0
		c-0.1-0.1-0.3,0.1-0.3-0.2C105.6,105,105.8,104.9,106,105.1z M135.9,103.5c-0.1,0-0.4,0.2-0.4-0.1
		C135.6,103.4,135.7,103.3,135.9,103.5z M118.9,104.3l0.4,0.2c-0.4,0-0.8,0-1.2,0.1c-0.4,0.1-1,0.1-1.4,0.1c-0.3,0-0.5,0.1-0.7-0.1
		C116.8,104.4,118,104.5,118.9,104.3z M114.9,104.7L114.9,104.7c0.2,0,0.2-0.1,0.3-0.1h0.1c0.2,0,0.5-0.1,0.6,0.1
		C115.6,104.7,115.2,104.8,114.9,104.7z M109.9,104.9l0.3-0.1c0,0.2,0.2,0,0.2,0.2c-0.3-0.1-0.6,0.1-0.9-0.1H109.9z M110.6,104.9
		L110.6,104.9c0.3,0,0.3-0.1,0.5-0.1v0.1c-0.2,0.2-0.5,0-0.7,0.1L110.6,104.9z M107,105.2h0.3c0.1,0,0.2-0.1,0.2,0.1
		c-0.3,0-0.6,0.2-1.1-0.1H107z M104.4,105.4h0.3h0.2c0.1,0.1,0.2-0.1,0.2,0.2c-0.3,0-0.5,0-0.8-0.1v-0.3L104.4,105.4z M121.6,104.3
		L121.6,104.3c-0.1,0.2-0.3,0.1-0.5,0.1C121.2,104.1,121.4,104.5,121.6,104.3z M134.5,103.7c0.3,0,0.6,0,1-0.1l0.7,0.2
		c-0.3,0.2-0.8,0-1.2,0c-0.3,0.2-0.6,0-0.9-0.1H134.5z M113.8,104.9L113.8,104.9l0.3-0.1c0,0.1,0.2-0.1,0.2,0.2h-0.1l-0.1,0.1H114
		h-0.3l-0.2-0.2H113.8z M103.9,105.3h0.2c0,0.1,0.2,0,0.2,0.2c-0.3,0-0.6,0-0.8-0.1L103.9,105.3z M112.3,105.1L112,105
		C112.2,105,112.3,105.1,112.3,105.1L112.3,105.1z M115.2,105h0.3c0.5,0.1,0.7,0.1,1.3,0l0.1-0.1h0.3l0.1-0.1l0.1,0.1l0.1-0.1
		c0.3,0,0.7,0.1,0.9-0.2c0.8,0.1,1.7,0,2.4,0c0.2-0.1,0.7-0.3,0.9-0.1h0.1c0.5-0.1,0.9-0.1,1.6,0h0.3c0.1,0,0.2-0.1,0.2,0.1h-0.3
		c-0.2,0.1-0.5,0-0.6,0.1l0.4,0.2l-0.2,0.1l0.2,0.1c-0.4,0.2-0.7,0.1-1.1,0.1l-0.1,0.1h-0.1l-0.1,0.1l-0.1-0.1
		c-0.3,0.1-0.5,0-0.8,0.1v-0.2c-0.5-0.1-1-0.1-1.4-0.1c-0.9-0.1-1.9,0.2-2.8,0.1l-0.2,0.2l-0.1-0.2
		C116.1,105.2,115.8,105.1,115.2,105C115,105,115.2,105.1,115.2,105z"/>
</g>
<g>
	<path class="st0" d="M202.8,129.9h2.5v13.3h6.5v2.1h-9V129.9z"/>
	<path class="st0" d="M219.4,139.6c0-3.7,2.6-6.1,5.3-6.1c3.1,0,4.7,2.2,4.7,5.5c0,0.5,0,0.9-0.1,1.2h-7.5c0.2,2.2,1.6,3.6,3.6,3.6
		c1,0,1.9-0.3,2.7-0.8l0.8,1.6c-1.1,0.7-2.4,1.2-3.9,1.2C221.8,145.5,219.4,143.3,219.4,139.6z M227.2,138.5c0-2-0.9-3.1-2.6-3.1
		c-1.5,0-2.7,1.1-2.9,3.1H227.2z"/>
	<path class="st0" d="M249.6,129.9h4.7c3.5,0,5.9,1.2,5.9,4.7c0,3.4-2.5,4.9-5.8,4.9h-2.3v5.8h-2.5V129.9z M254.1,137.5
		c2.5,0,3.7-0.9,3.7-3c0-2-1.3-2.7-3.7-2.7h-2v5.7H254.1L254.1,137.5L254.1,137.5z"/>
	<path class="st0" d="M267.9,139.6c0-3.7,2.6-6.1,5.3-6.1c3.1,0,4.7,2.2,4.7,5.5c0,0.5,0,0.9-0.1,1.2h-7.5c0.2,2.2,1.6,3.6,3.6,3.6
		c1,0,1.9-0.3,2.7-0.8l0.8,1.6c-1.1,0.7-2.4,1.2-3.9,1.2C270.3,145.5,267.9,143.3,267.9,139.6z M275.7,138.5c0-2-0.9-3.1-2.6-3.1
		c-1.5,0-2.7,1.1-2.9,3.1H275.7z"/>
	<path class="st0" d="M287,141.5v-5.8h-1.6v-1.8l1.8-0.1l0.3-3.2h2v3.2h3v1.9h-3v5.8c0,1.4,0.5,2.1,1.6,2.1c0.4,0,0.9-0.1,1.3-0.3
		l0.5,1.8c-0.6,0.2-1.5,0.5-2.3,0.5C287.9,145.5,287,144,287,141.5z"/>
	<path class="st0" d="M300.9,130.2c0-0.8,0.6-1.5,1.6-1.5s1.6,0.5,1.6,1.5c0,0.8-0.6,1.5-1.6,1.5S300.9,131,300.9,130.2z
		 M301.1,133.7h2.4v11.5h-2.4V133.7z"/>
	<path class="st0" d="M313.8,141.5v-5.8h-1.6v-1.8l1.8-0.1l0.3-3.2h2v3.2h3v1.9h-3v5.8c0,1.4,0.5,2.1,1.6,2.1c0.4,0,0.9-0.1,1.3-0.3
		l0.5,1.8c-0.6,0.2-1.5,0.5-2.3,0.5C314.7,145.5,313.8,144,313.8,141.5z"/>
	<path class="st0" d="M342.4,131.9h-4.6v-2h11.5v2h-4.6v13.4h-2.5L342.4,131.9L342.4,131.9z"/>
	<path class="st0" d="M355.8,139.6c0-3.8,2.6-6.1,5.4-6.1s5.4,2.2,5.4,6.1c0,3.8-2.6,6-5.4,6C358.3,145.5,355.8,143.3,355.8,139.6z
		 M364.1,139.6c0-2.5-1.1-4.1-2.9-4.1s-2.9,1.6-2.9,4.1s1.1,4,2.9,4S364.1,141.9,364.1,139.6z"/>
	<path class="st0" d="M374.3,133.7h2.5l1.6,6.2c0.3,1.1,0.5,2.2,0.6,3.3h0.1c0.3-1.1,0.5-2.2,0.7-3.3l1.6-6.2h2.3l1.6,6.2
		c0.3,1.1,0.5,2.2,0.8,3.3h0.1c0.3-1.1,0.5-2.2,0.6-3.3l1.5-6.2h2.3l-3,11.5h-2.9l-1.5-5.7c-0.3-1.1-0.5-2.1-0.7-3.4h-0.1
		c-0.3,1.2-0.5,2.3-0.7,3.4l-1.4,5.7h-2.9L374.3,133.7z"/>
	<path class="st0" d="M399.2,133.7h2l0.2,1.6h0.1c1.1-1,2.3-1.9,3.8-1.9c2.5,0,3.6,1.6,3.6,4.6v7.2h-2.4v-6.9c0-2-0.5-2.8-1.9-2.8
		c-1.1,0-1.8,0.5-2.8,1.6v8.2h-2.4v-11.4L399.2,133.7L399.2,133.7z"/>
</g>
<g class="st1">
	<path class="st0" d="M206.4,69.6l-6.2,1.6c-1-7.6-2.3-14.8-3.9-21.7l6.3-2.1C204.1,53.8,205.3,61.2,206.4,69.6z M224.3,51.3
		c-2.4,3.2-5.4,6.5-9.2,9.6v1.6c-0.1,5.4-0.4,10.4-0.9,15c3.3,3.9,6.6,8.3,10.1,13.2l-5,7.3c-2.6-5-4.8-9-6.6-12
		c-2.1,8.6-5.3,15.6-9.7,20.8l-6.1-5.4c7-8.1,10.6-21,10.7-38.9V34.2h7.5V52c1.7-2.2,3.3-4.3,4.7-6.5L224.3,51.3z M241.4,86.5
		c-3.9,7.7-8.5,14.5-13.8,20.1l-6.7-4.8c5.3-5.2,9.9-11.5,13.7-18.7L241.4,86.5z M232.5,49.6V33.7h7.9v15.9h10.5V33.7h7.8v15.9h8.4
		v7.7h-8.4v16.3h10.6v7.7h-47.5v-7.7h10.7V57.3h-8v-7.7H232.5z M250.9,73.6V57.3h-10.5v16.3H250.9z M269.8,101.8l-6.9,4.8
		c-3.4-5.9-8-12.5-13.7-19.7l6.5-4C261.7,90.2,266.5,96.4,269.8,101.8z"/>
	<path class="st0" d="M289.1,53.6V33.9h8.2v19.7h7.8v8.1h-7.8v23.1c3.2-1.2,6.3-2.4,9.5-3.9v8.2c-7.8,3.5-16.2,6.3-25,8.7l-2.1-8.4
		c3.2-0.6,6.3-1.3,9.5-2.1V61.7h-8.5v-8.1H289.1z M324.1,40.5c-0.9-2.1-1.8-4.1-2.8-5.9l8.6-1.4c0.9,2.2,1.7,4.7,2.5,7.3H350v7.7
		h-4.7c-1.6,5.1-3.2,9.7-5.1,13.9h11.5V70h-46.2v-7.9h11.2c-1.4-4.9-3.1-9.6-5.1-13.9h-4v-7.7H324.1z M347.6,106.3h-7.9v-3.7h-21.2
		v3.7h-7.8V75.2h37V106.3z M339.7,94.8V82.9h-21.2v11.9H339.7z M337.2,48.2h-17.4c1.6,4.1,3.1,8.8,4.4,13.9h8.2
		C334.2,57.7,335.8,53,337.2,48.2z"/>
	<path class="st0" d="M370.5,46.7v-7.9h60.9v7.9h-26.3V94h31.1v8h-70.7v-8h31.2V46.7H370.5z"/>
	<path class="st0" d="M458.2,53.6V33.9h8.2v19.7h8.5v8.1h-8.5v23c3.2-1.3,6.4-2.5,9.6-3.9v8.4c-8.1,3.5-16.6,6.4-25.6,8.8l-2.1-8.4
		c3.3-0.6,6.6-1.3,9.9-2.2V61.7h-8.6v-8.1H458.2z M476.2,52.9v-8h18.6c-1.3-3.8-2.6-7.3-4.1-10.7l8.9-1.4c1.3,3.6,2.6,7.6,3.9,12.1
		h16.7v8h-26.2v4.4c0,2.3-0.1,4.5-0.2,6.7h23.4c-0.3,19.2-1.1,31.2-2.4,35.9c-1.6,3.9-5,5.9-10.3,6c-2.7,0-5.8-0.2-9.4-0.4l-2.4-7.1
		c4.3,0.2,7.9,0.4,10.8,0.4c2.4-0.1,3.9-1.3,4.6-3.6c0.5-2.8,0.7-10.7,0.9-23.5h-16c-2.1,15.1-7.3,26.6-15.6,34.6l-6.5-5.7
		c9.8-9,14.8-23.5,15-43.4v-4.4H476.2z"/>
</g>
</svg>
